<svg version="1.1" xmlns="http://www.w3.org/2000/svg" xmlns:xlink="http://www.w3.org/1999/xlink" width="50.00682" height="58.63675" viewBox="0,0,50.00682,58.63675"><defs><linearGradient x1="240" y1="150.68162" x2="240" y2="209.31838" gradientUnits="userSpaceOnUse" id="color-1"><stop offset="0" stop-color="#ffffff"/><stop offset="1" stop-color="#707070"/></linearGradient></defs><g transform="translate(-214.99659,-150.68162)"><g stroke="none" stroke-miterlimit="10"><g><path d="M228.99233,209.31838l-13.99574,-48.17482l36.01108,-10.46193l13.99574,48.17482z" fill="url(#color-1)" stroke-width="0"/><path d="M229.25,168.25c-0.26456,0 -0.38913,-0.13998 -0.44779,-0.27181c-0.66327,-0.29741 -0.8314,-1.11683 -1.38554,-1.22819c-0.29331,-0.05894 -0.171,0.65609 -0.44306,0.78055c-1.78325,0.81576 -4.46837,-1.13241 -2.30758,2.10877c0,0 0.27735,0.41603 -0.13868,0.69338c-0.41603,0.27735 -0.69338,-0.13868 -0.69338,-0.13868c-0.9193,-1.37896 -1.97048,-3.34591 0.5026,-3.77089c0.72279,-0.12421 1.60515,0.65573 2.18982,0.213c0.3338,-0.25276 0.47174,-0.87415 0.89027,-0.88612c1.06567,-0.03047 0.94007,1.44348 1.83333,1.33333l0.5,0.66667c0,0 0,0.5 -0.5,0.5z" fill="#000000" stroke-width="0.5"/><path d="M236.46482,171.93924c-1.18025,-0.68979 -3.17886,-0.54191 -4.37527,-0.63495c-0.21728,-0.0169 -1.83067,-0.10525 -1.84642,-0.08778c-0.25729,0.28533 -0.12134,1.36799 -0.13151,1.72416c1.28988,2.39656 4.03509,1.99716 6.40239,1.86564c0.43471,-0.02415 2.62952,0.19414 2.81571,-0.27544c0.17839,-0.44993 -0.70107,-1.22593 -1.07696,-1.50714c-0.04382,0.10176 -0.1326,0.19936 -0.30299,0.25616c-0.47434,0.15811 -0.63246,-0.31623 -0.63246,-0.31623c-0.07993,-0.2477 -0.20402,-0.45654 -0.36282,-0.63278l-0.15428,-0.05099c0,0 -0.272,-0.09067 -0.3354,-0.34065zM237.44286,171.44082l0.20682,0.06945c0.37669,0.18813 0.74201,0.40071 1.09268,0.63377c0.9539,0.69815 2.5131,2.50427 0.85625,3.44205c-0.72306,0.40926 -2.21759,0.17359 -3.02929,0.21869c-2.93093,0.16283 -5.98035,0.41673 -7.43094,-2.63436c-0.01527,-0.79707 -0.17323,-2.17993 0.53516,-2.77584c0.30887,-0.25982 1.45791,-0.09991 1.91122,-0.08955c-0.00142,-0.01723 -0.00142,-0.02726 -0.00142,-0.02726l0.22265,-0.58269c0.01102,-0.00705 0.02204,-0.01412 0.03303,-0.02123c-0.51318,-0.07799 -0.9271,-0.1565 -1.16862,-0.21656l-0.21207,0.01493c0,0 -0.5,0 -0.5,-0.5c0,-0.5 0.5,-0.5 0.5,-0.5l0.00688,0.00023c0.03338,-0.19954 0.18494,-0.35905 0.38028,-0.40411c-0.16049,-0.07816 -0.31743,-0.16551 -0.47049,-0.26279l0.8192,-0.63283c0.08621,-0.03837 0.173,-0.0763 0.2603,-0.11386c0.05662,-0.13675 0.17217,-0.24291 0.31498,-0.28683l0.48906,-0.16302l0.02941,0.08822l0.19507,-0.10946c0.01598,0.00928 0.03195,0.01855 0.04793,0.02783c0.08809,-0.03536 0.1763,-0.07072 0.26454,-0.10615c0.21256,-1.59974 1.14325,-2.04495 2.23063,-0.98395c0.14713,-0.07647 0.29201,-0.15544 0.43414,-0.2374c0,0 0.22654,-0.12945 0.44584,-0.03768c0.10812,-0.10476 0.33092,-0.24889 0.62124,-0.05534c0.41603,0.27735 0.13868,0.69338 0.13868,0.69338c-0.23039,0.34558 -0.47066,0.68945 -0.7211,1.02788c0.71104,-0.1127 1.32944,-0.21539 1.68863,-0.33512l0.25,-0.08333c0,0 0.47434,-0.15811 0.63246,0.31623c0.02099,0.06298 0.03084,0.12038 0.03212,0.17258c0.39965,-0.06134 0.79996,-0.11793 1.20187,-0.16277c0,-1.19131 0,-2.38261 0,-3.57393v-0.66667c0,-0.27614 0.22386,-0.5 0.5,-0.5c0.13807,0 0.26307,0.05596 0.35355,0.14645l0.66667,0.66667l-0.03654,0.03654c1.20464,0.81846 2.89075,1.83405 3.65831,1.35507c0.68695,-0.42868 2.03547,-2.68792 3.15036,-1.94368c0.39009,0.2604 0.20598,1.89541 0.2039,2.30005l-0.17785,0.72684c0,0 -0.12127,0.48507 -0.60634,0.3638l0.00001,0.00001c-0.48507,-0.12127 -0.3638,-0.60634 -0.3638,-0.60634l0.15548,-0.60649c-0.00032,-0.05233 -0.0624,-0.69819 -0.01314,-1.09149c-0.12097,0.06543 -0.25399,0.13159 -0.32637,0.19408c-0.50912,0.43958 -0.98024,1.29344 -1.63956,1.5871c-1.15597,0.51487 -3.6253,-0.50685 -4.52468,-1.60573c0,1.04488 0,2.08976 0,3.13464c0.22161,-0.01127 0.44393,-0.01729 0.6671,-0.01691l1.00092,0.21826c-0.43569,0.56614 -1.00788,1.04744 -1.66802,1.45348c0,0.007 0,0.01399 0,0.02099c0,0 0,0.5 -0.5,0.5c-0.13091,0 -0.22755,-0.03428 -0.29888,-0.08488c-0.27985,0.13573 -0.57015,0.26067 -0.86804,0.37538l-0.91683,0.59669c-1.01898,0 -2.67444,0.41145 -4.02818,0.44842c-0.47101,0.03506 -0.92353,0.05209 -1.34639,0.05329l-0.05129,-0.05129c-0.02366,0.01776 -0.04738,0.03542 -0.07116,0.05299c1.64024,0.0158 3.60968,0.14633 4.77364,1.13358zM236.71099,168.72676c0.76779,-0.19839 1.52555,-0.42651 2.26536,-0.6486c0.15606,-0.04685 0.3125,-0.10989 0.46926,-0.17998c-1.14227,0.16661 -2.34344,0.41412 -3.52944,0.57898c0.01217,0.06656 0.00971,0.14361 -0.0153,0.23227c0.2717,-0.00015 0.54198,0.00452 0.81012,0.01733zM233.75,167.25l0,0.05076c0.24799,-0.05349 0.50401,-0.10281 0.76161,-0.14901c0.09493,-0.11766 0.18836,-0.23638 0.28031,-0.35583c-0.00854,-0.0131 -0.017,-0.02605 -0.0254,-0.03887c-0.33421,0.15245 -0.67443,0.29721 -1.01652,0.43859c-0.00001,0.01796 -0.00001,0.03608 -0.00001,0.05435zM233.78966,166.10144c0.12336,-0.05253 0.24615,-0.10584 0.36812,-0.16016c-0.22004,-0.21504 -0.32144,-0.14334 -0.36812,0.16016z" fill="#000000" stroke-width="0.5"/><path d="M239.25,184.75c0,-0.01772 0.00092,-0.03523 0.00272,-0.05248l0.01221,-0.23546c0.16783,-0.65464 0.15174,-1.20459 0.15174,-1.87873c0,0 0,-0.32764 0.26522,-0.45247c-1.0647,-0.17567 -2.32552,-0.0106 -3.438,0.24227c0.01705,0.01405 0.02633,0.02332 0.02633,0.02332l0.39581,0.40954c0.26589,0.41602 0.85455,1.16586 1.46958,1.8384c0.36773,0.0853 0.74583,0.15808 1.12662,0.21598c-0.008,-0.0355 -0.01222,-0.07244 -0.01222,-0.11036zM240.25,184.75c0,0.06319 -0.01172,0.12365 -0.03312,0.17931c-0.00469,0.0138 -0.01005,0.02792 -0.01616,0.04217c0.24794,0.02079 0.49435,0.03441 0.73708,0.04021c0.20047,-0.15931 0.47031,-0.06936 0.47031,-0.06936l0.19005,0.06493c0.16494,-0.00647 0.32709,-0.01713 0.48569,-0.0322c-0.00909,-1.53777 -0.73001,-2.33208 -1.7532,-2.68366c0.08601,0.13728 0.08601,0.29194 0.08601,0.29194c0,0.7432 -0.00112,1.36381 -0.17312,2.08614c0.00424,0.02621 0.00645,0.05311 0.00645,0.08052zM235.43827,182.57652c-0.346,0.0957 -0.66475,0.1942 -0.94266,0.28553c0.03653,0.07968 0.08312,0.15894 0.14106,0.23762c0.36676,0.36676 0.99166,0.71726 1.759,1.01582c-0.22678,-0.28764 -0.42024,-0.54888 -0.56169,-0.75481l-0.27086,-0.25713c0,0 -0.24271,-0.24271 -0.12484,-0.52703zM239.22532,186.87861c-0.16142,-0.07951 -0.33916,-0.19681 -0.52666,-0.34174c-0.63504,0.31646 -1.28118,0.69811 -1.1424,0.8842c0.02213,0.02968 0.05291,0.05866 0.09086,0.08693c0.46592,-0.15245 0.86285,-0.28034 1.04593,-0.37188l0.32434,-0.16217c0.05527,-0.0291 0.11666,-0.04815 0.18172,-0.05473c0.03169,-0.00447 0.06621,-0.00679 0.10222,-0.00514c-0.02561,-0.01131 -0.05095,-0.02313 -0.07602,-0.03548zM244.36068,187.83269l-0.55767,0.36647c-0.54129,0.18043 -1.91661,1.20505 -2.51203,0.7898c-0.52865,-0.36868 -0.22682,-1.31326 -0.01923,-2.03625c-0.15729,0.04979 -0.3184,0.08838 -0.48055,0.11474c0.0479,0.84671 0.08267,1.97594 -0.24884,2.25484c-0.36323,0.30559 -1.78791,-0.20397 -2.82012,-0.75148c-0.16418,0.05174 -0.32858,0.10307 -0.49401,0.15774c-0.21655,0.07157 -0.65088,0.25968 -0.93937,0.36291c0.40872,0.26563 1.07132,1.52661 1.50422,2.47523l0.16896,0.11264l0.26231,-0.08744l0.16298,0.48893c0.019,0.05284 0.02935,0.1098 0.02935,0.16919c0,0.27614 -0.22386,0.5 -0.5,0.5c-0.10506,0 -0.20256,-0.03241 -0.28304,-0.08777l-0.45514,-0.30343c-0.82658,-0.31768 -1.58444,-1.16741 -2.37251,-1.69278c-0.81621,-0.54414 -3.6241,-1.58518 -3.85568,-2.56906c-0.30402,-1.29165 3.1732,-2.41511 5.12984,-3.01003c-0.91301,-0.3653 -1.69018,-0.82664 -2.21681,-1.35327c-2.74302,-4.33573 4.40389,-6.4534 7.62211,-5.23689c0.0869,-0.14767 0.24749,-0.24677 0.43123,-0.24677c0.27614,0 0.5,0.22386 0.5,0.5c0,0.22482 -0.14837,0.41498 -0.35254,0.4779c-0.00888,0.02552 -0.01999,0.05187 -0.03358,0.07904c-0.22361,0.44721 -0.67082,0.22361 -0.67082,0.22361c-1.68168,-0.84995 -5.40203,-0.78546 -6.32724,1.1058c-0.18389,0.3759 -0.42459,0.77635 -0.55414,1.18232c3.08737,-0.94765 8.34484,-1.61716 8.59606,2.98959c0.27729,-0.07101 0.53402,-0.16151 0.76432,-0.27331c-0.09099,-0.1205 -0.16804,-0.31736 -0.00475,-0.56229c0.27735,-0.41603 0.69338,-0.13868 0.69338,-0.13868c0.04092,0.02728 0.08191,0.05449 0.12296,0.08163c0.05564,-0.06917 0.10593,-0.14201 0.15053,-0.21861c0.30845,-0.9545 0.72496,-1.79772 -0.16153,-2.3643l-0.40954,-0.39581c0,0 -0.35355,-0.35355 0,-0.70711c0.35355,-0.35355 0.70711,0 0.70711,0l0.25713,0.27086c1.3916,0.95592 0.99034,2.2116 0.50514,3.6357c-0.07401,0.10471 -0.15441,0.20449 -0.24074,0.29946c1.67243,1.0491 3.43335,1.99169 5.17793,2.86504c0.81816,0.40958 1.90825,0.50174 1.55196,1.85643c-0.09241,0.35138 -1.83833,1.18095 -2.17544,1.51805c-2.29129,0.80357 -4.51814,1.6519 -6.84944,2.40155l-0.08009,-0.03084v0.0373h-0.5v0v0c-0.27614,0 -0.5,-0.22386 -0.5,-0.5c0,-0.22492 0.14851,-0.41515 0.35282,-0.47799l0.48906,-0.16302l0.0338,0.10141c1.23037,-0.73047 2.63441,-1.07695 3.84696,-1.87642c0.51882,-0.34207 0.90081,-1.2634 1.62039,-1.18203c0.48299,0.05461 -0.96716,-0.12203 -1.4376,-0.2443c-0.8539,-0.22193 -1.62941,-0.60158 -2.45846,-0.87515c-0.0389,-0.02559 -0.07775,-0.0509 -0.11655,-0.07597c-0.03081,0.02799 -0.05309,0.04284 -0.05309,0.04284zM240.75,185.97907v0.03609c0.06465,-0.01049 0.12936,-0.02275 0.19352,-0.03672c-0.06435,0.00074 -0.12887,0.00095 -0.19352,0.00063zM242.02995,187.95984c0.36816,-0.25684 1.21388,-0.61906 1.33371,-0.659l0.11858,-0.08048c-0.37198,-0.21842 -0.74207,-0.4298 -1.11347,-0.65398c-0.0725,0.39614 -0.21477,1.0504 -0.33882,1.39346zM239.68937,187.17781c0.00396,0.00727 0.00775,0.01465 0.01135,0.02214c0.00161,-0.05172 0.00356,-0.10302 0.00574,-0.15345c-0.05213,-0.01173 -0.10364,-0.02515 -0.15442,-0.04032c0.05003,0.03997 0.09703,0.09555 0.13732,0.17164zM239.40811,188.10899c0.09177,0.03059 0.24584,0.11475 0.37509,0.19844c-0.05486,-0.15946 -0.07851,-0.39621 -0.08515,-0.654c-0.02404,0.04009 -0.05266,0.07444 -0.08129,0.10308c-0.04309,0.04648 -0.0949,0.08475 -0.15284,0.11222l-0.32364,0.16182c-0.00029,0.00015 -0.00058,0.00029 -0.00088,0.00044c0.10682,0.02882 0.19928,0.05486 0.26872,0.07801zM236.6104,187.7456c-0.31104,-0.86928 0.44846,-1.48848 1.28102,-1.93243c-0.07165,-0.07151 -0.1434,-0.14474 -0.21495,-0.21925c-0.01577,-0.00386 -0.03152,-0.00775 -0.04726,-0.01166c-0.09953,0.10156 -0.2211,0.14208 -0.2211,0.14208c-1.35631,0.45109 -2.66966,1.28236 -4.01322,1.67087c-0.49629,0.14351 -1.87944,-0.02188 -1.51186,0.34116c0.893,0.88197 2.42074,1.393 3.47766,2.09761c0.05549,0.03699 0.11191,0.0771 0.16913,0.1197c-0.30651,-0.48928 -0.49468,-0.94785 -0.41942,-1.19927c0.09436,-0.31521 0.79283,-0.63403 1.55721,-0.91272c-0.02737,-0.03465 -0.04674,-0.06683 -0.05721,-0.09608zM244.96968,186.96751c0.92711,0.31455 4.53701,0.86803 4.43728,2.21388c-0.03352,0.45235 -0.86007,0.64048 -1.13674,0.92216c-0.05009,0.051 -0.12,0.11423 -0.2066,0.18707c0.47853,-0.16265 0.95385,-0.3191 1.42352,-0.46595c0.49002,-0.49002 1.21001,-1.01069 1.82456,-1.14861c0.1992,-0.04471 -0.4072,-0.06103 -0.59731,-0.13547c-0.50265,-0.19682 -1.1224,-0.57461 -1.57507,-0.87457c-1.43544,-0.95117 -3.01345,-1.6739 -4.49063,-2.57072c-0.4854,0.296 -1.05608,0.51171 -1.67927,0.65591c0.66714,0.39271 1.32778,0.76004 2.00025,1.2163z" fill="#000000" stroke-width="0.5"/><path d="M254.10355,163.60355c-0.35355,0.35355 -0.70711,0 -0.70711,0l-0.39581,-0.40954c-1.37172,-2.05759 -2.7784,-4.7572 -3.40238,-7.15608c0,0 -0.12127,-0.48507 0.3638,-0.60634c0.48507,-0.12127 0.60634,0.3638 0.60634,0.3638c0.53795,2.269 1.97636,4.91202 3.26429,6.84392l0.27086,0.25713c0,0 0.35355,0.35355 0,0.70711z" fill="#000000" stroke-width="0.5"/><path d="M252.91667,166.08333c0,-0.27614 0.22386,-0.5 0.5,-0.5c0.27614,0 0.5,0.22386 0.5,0.5c0,0.27614 -0.22386,0.5 -0.5,0.5c-0.27614,0 -0.5,-0.22386 -0.5,-0.5z" fill="#000000" stroke-width="0.5"/></g></g></g></svg>