<svg version="1.1" xmlns="http://www.w3.org/2000/svg" xmlns:xlink="http://www.w3.org/1999/xlink" width="439.79601" height="246.71102" viewBox="0,0,439.79601,246.71102"><g transform="translate(-19.66663,-103.26806)"><g stroke="none" stroke-miterlimit="10"><path d="M19.66663,349.97908v-246.71102h162.59613v246.71102z" fill="#808080" stroke-width="0"/><path d="M190.62325,344.89761v-235.85404h268.83939v235.85404z" fill="#808080" stroke-width="0"/><text transform="translate(203.93933,131.08927) scale(0.3487,0.3487)" font-size="40" xml:space="preserve" fill="#ffffff" stroke-width="1" font-family="Sans Serif" font-weight="normal" text-anchor="start"><tspan x="0" dy="0">lost maze level editor is a thing</tspan><tspan x="0" dy="48px">now when the advanced update is</tspan><tspan x="0" dy="48px">here!</tspan><tspan x="0" dy="48px"> </tspan><tspan x="0" dy="48px">bulid levels generate a maze</tspan><tspan x="0" dy="48px">place the exit place walls</tspan><tspan x="0" dy="48px">and more when small updates come!</tspan></text><text transform="translate(200.06184,336.99098) scale(0.19693,0.19693)" font-size="40" xml:space="preserve" fill="#ffffff" stroke-width="1" font-family="Sans Serif" font-weight="normal" text-anchor="start"><tspan x="0" dy="0">Written by : Test_q7 / hbo is cool</tspan></text><g fill="#ffffff"><path d="M84.43174,264.37604l-21.15529,-33.41249l38.66302,-24.47969l9.83435,-18.26277c0,0 16.83954,14.03668 20.80805,20.99677c5.00368,8.77561 6.8348,27.48407 6.8348,27.48407l-16.32192,3.19441z" stroke-width="NaN"/><path d="M102.51941,274.98993l-19.94642,-31.5032l10.97839,-6.95102l19.94642,31.5032z" stroke-width="0"/></g></g></g></svg>