<svg version="1.1" xmlns="http://www.w3.org/2000/svg" xmlns:xlink="http://www.w3.org/1999/xlink" width="168" height="266.11655" viewBox="0,0,168,266.11655"><g transform="translate(-287.6396,-68.66666)"><g stroke="none" stroke-miterlimit="10"><path d="M287.6396,334.78321v-266.11655h168v266.11655z" fill="#808080" stroke-width="0"/><text transform="translate(319.59204,305.1875) scale(1.00797,1.00797)" font-size="40" xml:space="preserve" fill="#ffffff" stroke-width="1" font-family="Sans Serif" font-weight="normal" text-anchor="start"><tspan x="0" dy="0">items</tspan></text><g fill="#ffffff" stroke-width="0"><path d="M362.25252,226.67562l56.44804,-30.157l-4.6649,20.46247l-42.20055,27.63129l0.06126,6.3984l-46.50674,18.49313l-9.43655,-21.78182l37.20459,-20.93447z"/><path d="M318.49105,236.15337l19.33877,-17.11284l21.71918,15.1443l-8.76382,7.61415l-8.97346,-14.03576l-16.35411,8.73707l6.76254,11.01948l-5.90621,5.81519z"/></g><g fill="#ffffff" stroke-width="0"><path d="M338.53364,198.78566l-27.41197,-59.0675l47.84467,-22.20369l27.41197,59.0675z"/><path d="M332.4973,135.7083l4.05194,-15.12204l-4.92804,-10.91052l-7.29037,-3.66395l2.24592,-11.43446l24.06491,0.17382l-1.28879,9.81589l-6.01701,4.71446l2.9975,11.62704l-2.12139,14.40552z"/></g></g></g></svg>