<svg version="1.1" xmlns="http://www.w3.org/2000/svg" xmlns:xlink="http://www.w3.org/1999/xlink" width="439.79601" height="246.71102" viewBox="0,0,439.79601,246.71102"><g transform="translate(-19.66662,-103.26806)"><g stroke="none" stroke-miterlimit="10"><path d="M19.66663,349.97909v-246.71102h162.59613v246.71102z" fill="#808080" stroke-width="0"/><path d="M190.62325,344.89762v-235.85404h268.83939v235.85404z" fill="#808080" stroke-width="0"/><text transform="translate(203.93933,131.08927) scale(0.3487,0.3487)" font-size="40" xml:space="preserve" fill="#ffffff" stroke-width="1" font-family="Sans Serif" font-weight="normal" text-anchor="start"><tspan x="0" dy="0">saw can cut up vines in areas chosen</tspan><tspan x="0" dy="48px">by the developer's</tspan><tspan x="0" dy="48px"> </tspan><tspan x="0" dy="48px">extra : cut my life into pieces</tspan><tspan x="0" dy="48px">ok i know its not funny</tspan></text><text transform="translate(200.06184,336.99099) scale(0.19693,0.19693)" font-size="40" xml:space="preserve" fill="#ffffff" stroke-width="1" font-family="Sans Serif" font-weight="normal" text-anchor="start"><tspan x="0" dy="0">Written by : Test_q7 / hbo is cool</tspan></text><g fill="#ffffff" stroke-width="0"><path d="M94.83956,217.64318l44.28589,-68.22782l7.37815,25.6338l-29.98419,56.66618l3.99828,7.08183l-40.38862,49.14322l-23.87913,-18.44023l28.53863,-46.14598z"/><path d="M51.96802,255.06881l11.00683,-30.91988l33.46894,3.5103l-5.07457,13.85525l-18.60596,-10.10569l-12.8305,19.76694l14.29318,8.10752l-2.99991,10.09832z"/></g></g></g></svg>