<svg version="1.1" xmlns="http://www.w3.org/2000/svg" xmlns:xlink="http://www.w3.org/1999/xlink" width="439.79601" height="246.71102" viewBox="0,0,439.79601,246.71102"><g transform="translate(-19.66664,-103.26809)"><g stroke="none" stroke-miterlimit="10"><path d="M19.66664,349.97911v-246.71102h162.59613v246.71102z" fill="#808080" stroke-width="0"/><path d="M190.62326,344.89764v-235.85404h268.83939v235.85404z" fill="#808080" stroke-width="0"/><text transform="translate(203.93934,131.08927) scale(0.3487,0.3487)" font-size="40" xml:space="preserve" fill="#ffffff" stroke-width="1" font-family="Sans Serif" font-weight="normal" text-anchor="start"><tspan x="0" dy="0">axe cuts up board's</tspan><tspan x="0" dy="48px">choosen by the developer's</tspan><tspan x="0" dy="48px"> </tspan><tspan x="0" dy="48px">it will apper next chapter</tspan></text><text transform="translate(200.06185,336.99101) scale(0.19693,0.19693)" font-size="40" xml:space="preserve" fill="#ffffff" stroke-width="1" font-family="Sans Serif" font-weight="normal" text-anchor="start"><tspan x="0" dy="0">Written by : Test_q7 / hbo is cool</tspan></text><g fill="#ffffff" stroke-width="0"><path d="M122.1127,311.46211c0,0 -13.45169,-45.90123 -25.02855,-67.70679c-12.78275,-24.07692 -48.40935,-70.61696 -48.40935,-70.61696l24.33473,-12.91963c0,0 22.80512,48.83003 35.19212,72.16154c12.08484,22.76236 38.24579,66.16221 38.24579,66.16221z"/><path d="M97.97944,217.55867l-22.43936,-42.26559l45.88586,-42.42106c0,0 13.55825,13.16808 18.49605,22.46866c5.50279,10.36477 13.00972,36.87393 13.00972,36.87393z"/></g></g></g></svg>