<svg version="1.1" xmlns="http://www.w3.org/2000/svg" xmlns:xlink="http://www.w3.org/1999/xlink" width="234.54464" height="92.5506" viewBox="0,0,234.54464,92.5506"><g transform="translate(-27.16663,-68.66666)"><g stroke-miterlimit="10"><path d="M27.16663,161.21725v-92.5506h234.54464v92.5506z" fill="#808080" stroke="none" stroke-width="0" stroke-linecap="butt"/><text transform="translate(136.87166,116.65401) scale(0.77975,0.77975)" font-size="40" xml:space="preserve" fill="#ffffff" stroke="none" stroke-width="1" stroke-linecap="butt" font-family="Sans Serif" font-weight="normal" text-anchor="start"><tspan x="0" dy="0">Entities</tspan></text><g fill="#ffffff" stroke-width="0"><path d="M86.13294,95.64083l13.00336,26.42765l-11.57833,14.60475l3.56256,-15.30021l-6.41261,-16.69115z" stroke="#ffffff" stroke-linecap="round"/><path d="M71.48734,105.79475l-6.41261,16.69115l3.56256,15.30021l-11.57833,-14.60475l13.00336,-26.42765z" stroke="#ffffff" stroke-linecap="round"/><path d="M95.45306,99.53592l25.38446,26.42765l-22.6026,14.60475l6.95464,-15.30021l-12.51836,-16.69115z" stroke="#ffffff" stroke-linecap="round"/><path d="M66.8627,109.68984l-12.51836,16.69115l6.95464,15.30022l-22.6026,-14.60475l25.38445,-26.42765z" stroke="#ffffff" stroke-linecap="round"/><path d="M103.80004,107.60432c0,12.44622 -10.08966,22.53588 -22.53588,22.53588c-12.44622,0 -22.53588,-10.08966 -22.53588,-22.53588c0,-12.44622 10.08966,-22.53588 22.53588,-22.53588c12.44622,0 22.53588,10.08966 22.53588,22.53588z" stroke="none" stroke-linecap="butt"/></g></g></g></svg>