<svg version="1.1" xmlns="http://www.w3.org/2000/svg" xmlns:xlink="http://www.w3.org/1999/xlink" width="450.15466" height="110.46596" viewBox="0,0,450.15466,110.46596"><g transform="translate(-19.66662,-94.45392)"><g stroke="none" stroke-miterlimit="10"><path d="M19.66663,204.91988v-103.20281h441v103.20281z" fill="#808080" stroke-width="0"/><text transform="translate(26.33331,124.38374) scale(0.5,0.5)" font-size="40" xml:space="preserve" fill="#ffffff" stroke-width="1" font-family="Sans Serif" font-weight="normal" text-anchor="start"><tspan x="0" dy="0">news</tspan></text><g fill="#ffffff"><path d="M394.55754,187.81132l-21.15529,-33.41249l38.66302,-24.47969l9.83435,-18.26277c0,0 16.83954,14.03668 20.80805,20.99677c5.00368,8.77561 6.8348,27.48407 6.8348,27.48407l-16.32192,3.19441z" stroke-width="NaN"/><path d="M412.64521,198.42521l-19.94642,-31.5032l10.97839,-6.95102l19.94642,31.5032z" stroke-width="0"/></g><path d="M456.28075,101.22419c0,-3.73911 3.03115,-6.77027 6.77027,-6.77027c3.73912,0 6.77027,3.03115 6.77027,6.77027c0,3.73911 -3.03116,6.77027 -6.77027,6.77027c-3.73912,0 -6.77027,-3.03116 -6.77027,-6.77027z" fill="#ff6666" stroke-width="0"/></g></g></svg>