<svg version="1.1" xmlns="http://www.w3.org/2000/svg" xmlns:xlink="http://www.w3.org/1999/xlink" width="244.65414" height="174.19342" viewBox="0,0,244.65414,174.19342"><g transform="translate(-26.6396,-163.47326)"><g stroke-miterlimit="10"><path d="M26.6396,337.66667v-167h235v167z" fill="#808080" stroke="none" stroke-width="0" stroke-linecap="butt"/><text transform="translate(34.59204,196.16597) scale(0.50976,0.50976)" font-size="40" xml:space="preserve" fill="#ffffff" stroke="none" stroke-width="1" stroke-linecap="butt" font-family="Sans Serif" font-weight="normal" text-anchor="start"><tspan x="0" dy="0">game updates &amp; news</tspan></text><g><path d="M70.5,315.66666v-83.77654l36.49162,-8.22346l21.07263,16.44693l14.39106,19.53073l-2.56983,56.02235z" fill="#ffffff" stroke="none" stroke-width="0" stroke-linecap="butt"/><path d="M134.23184,261.18621l-57.05028,-2.05587" fill="none" stroke="#000000" stroke-width="0.5" stroke-linecap="round"/><path d="M73.5838,273.52142l61.67598,0.51397" fill="none" stroke="#000000" stroke-width="0.5" stroke-linecap="round"/><path d="M71.52793,287.91247l63.73184,2.56983" fill="none" stroke="#000000" stroke-width="0.5" stroke-linecap="round"/><path d="M125.49441,302.30352l-40.60335,3.59777" fill="none" stroke="#000000" stroke-width="0.5" stroke-linecap="round"/></g><g fill="#ffffff" stroke="none" stroke-linecap="butt"><path d="M184.28898,296.44435l-21.88673,-34.56771l39.99978,-25.32607l10.17437,-18.8942c0,0 17.42176,14.52199 21.52748,21.72273c5.17668,9.07902 7.07111,28.43432 7.07111,28.43432l-16.88624,3.30486z" stroke-width="NaN"/><path d="M203.00202,307.42521l-20.63606,-32.59241l11.35796,-7.19135l20.63606,32.59241z" stroke-width="0"/></g><path d="M257.7532,170.24353c0,-3.73912 3.03115,-6.77027 6.77027,-6.77027c3.73912,0 6.77027,3.03115 6.77027,6.77027c0,3.73912 -3.03115,6.77027 -6.77027,6.77027c-3.73912,0 -6.77027,-3.03115 -6.77027,-6.77027z" fill="#ff6666" stroke="none" stroke-width="0" stroke-linecap="butt"/></g></g></svg>