<svg version="1.1" xmlns="http://www.w3.org/2000/svg" xmlns:xlink="http://www.w3.org/1999/xlink" width="234.54465" height="92.5506" viewBox="0,0,234.54465,92.5506"><g transform="translate(-27.16662,-68.66666)"><g stroke-miterlimit="10"><path d="M27.16663,161.21725v-92.55059h234.54465v92.5506z" fill="#808080" stroke="none" stroke-width="0" stroke-linecap="butt"/><text transform="translate(136.87166,116.65401) scale(0.77976,0.77975)" font-size="40" xml:space="preserve" fill="#ffffff" stroke="none" stroke-width="1" stroke-linecap="butt" font-family="Sans Serif" font-weight="normal" text-anchor="start"><tspan x="0" dy="0">Entities</tspan></text><g fill="#ffffff" stroke-width="0"><path d="M86.13295,95.64083l13.00336,26.42765l-11.57834,14.60476l3.56257,-15.30022l-6.41262,-16.69115z" stroke="#ffffff" stroke-linecap="round"/><path d="M71.48735,105.79475l-6.41262,16.69115l3.56256,15.30021l-11.57833,-14.60475l13.00336,-26.42765z" stroke="#ffffff" stroke-linecap="round"/><path d="M95.45307,99.53592l25.38446,26.42765l-22.60259,14.60475l6.95464,-15.30021l-12.51835,-16.69115z" stroke="#ffffff" stroke-linecap="round"/><path d="M66.8627,109.68984l-12.51836,16.69114l6.95464,15.30022l-22.60259,-14.60475l25.38445,-26.42765z" stroke="#ffffff" stroke-linecap="round"/><path d="M103.80004,107.60432c0,12.44622 -10.08965,22.53588 -22.53587,22.53588c-12.44622,0 -22.53588,-10.08966 -22.53588,-22.53588c0,-12.44622 10.08966,-22.53588 22.53588,-22.53588c12.44622,0 22.53587,10.08966 22.53587,22.53588z" stroke="none" stroke-linecap="butt"/></g><text transform="translate(127.71425,145.23859) scale(0.41406,0.41406)" font-size="40" xml:space="preserve" fill="#ff0000" stroke="none" stroke-width="1" stroke-linecap="butt" font-family="Sans Serif" font-weight="normal" text-anchor="start"><tspan x="0" dy="0">GO IN DISCORD</tspan></text></g></g></svg>